Coordinates
version=1
nRows=11
nColumns=40
inDegrees=yes

Units are S.I. units (second, meters, Newtons, ...)
Angles are in degrees.

endheader
time	pelvis_tilt	pelvis_list	pelvis_rotation	pelvis_tx	pelvis_ty	pelvis_tz	hip_flexion_r	hip_adduction_r	hip_rotation_r	knee_angle_r	knee_angle_r_beta	ankle_angle_r	subtalar_angle_r	mtp_angle_r	hip_flexion_l	hip_adduction_l	hip_rotation_l	knee_angle_l	knee_angle_l_beta	ankle_angle_l	subtalar_angle_l	mtp_angle_l	lumbar_extension	lumbar_bending	lumbar_rotation	arm_flex_r	arm_add_r	arm_rot_r	elbow_flex_r	pro_sup_r	wrist_flex_r	wrist_dev_r	arm_flex_l	arm_add_l	arm_rot_l	elbow_flex_l	pro_sup_l	wrist_flex_l	wrist_dev_l
     16.12742857	     -4.31407776	     -6.54052496	      1.97828463	      0.78168026	      0.92967887	      0.48506128	     11.72027172	      4.49602193	    -14.77876469	     13.77838374	     13.77838374	      7.92844878	     -2.30541083	     -5.50504919	     33.04599779	    -10.88365590	      4.79008600	     60.94562480	     60.94562480	      7.44017814	    -18.90447154	     11.41058990	    -10.44907383	      7.36482946	      1.16370901	     26.53269078	    -14.16980244	     -7.68896014	     52.97470997	     45.54067661	      0.00000000	      0.00000000	      2.20000091	     -7.17794885	     -3.53177110	     27.09648583	     45.94856509	      0.00000000	      0.00000000
     16.13985714	     -4.53864682	     -6.47569718	      2.29187022	      0.78066329	      0.92981904	      0.48480654	     11.38071682	      4.45276522	    -14.95360880	     13.38778137	     13.38778137	      8.13701017	     -2.25614791	     -5.42534954	     34.02116457	    -10.53937806	      4.74125520	     58.26385760	     58.26385760	      9.05707458	    -18.89112728	     14.43985191	    -10.50674241	      7.21052567	      2.09617247	     26.23456574	    -15.38870983	     -7.71408667	     58.42923647	     45.35120363	      0.00000000	      0.00000000	      2.43709664	     -6.68883963	     -2.62976877	     25.12564206	     45.81561492	      0.00000000	      0.00000000
     16.15228571	     -4.68730435	     -6.37790787	      2.62750667	      0.77975508	      0.93005185	      0.48432091	     10.90992655	      4.38073129	    -15.08327947	     12.90955248	     12.90955248	      8.29350628	     -2.23259705	     -5.35431006	     34.58403123	    -10.13573511	      4.61758772	     54.94942862	     54.94942862	      9.64368335	    -18.86358585	     14.64246637	    -10.56320923	      7.02607307	      1.75668507	     27.82572197	    -15.22005523	     -8.00894943	     60.33577795	     45.30673315	      0.00000000	      0.00000000	      1.56739009	     -6.46904140	     -2.33522548	     24.41468600	     45.75127311	      0.00000000	      0.00000000
     16.16471429	     -4.89609316	     -6.25962792	      2.92133473	      0.77889517	      0.93010038	      0.48368537	     10.56168016	      4.24550072	    -15.30397683	     12.56644248	     12.56644248	      8.53294856	     -2.10569120	     -5.30714379	     34.97460086	     -9.64420493	      4.49263644	     51.25084781	     51.25084781	      9.88520149	    -18.73571612	     14.05950422	    -10.58730519	      6.82098027	      2.21933633	     28.24500393	    -15.73971206	     -8.69482173	     64.09043365	     45.22163257	      0.00000000	      0.00000000	      1.10079872	     -6.25157681	     -1.34812967	     23.91059740	     45.57191485	      0.00000000	      0.00000000
     16.17714286	     -5.07520686	     -6.09703074	      3.19960096	      0.77816299	      0.93010835	      0.48283652	     10.20641326	      4.05794274	    -15.39246062	     12.28973707	     12.28973707	      8.75310221	     -2.14055098	     -5.31880372	     35.14886419	     -8.98485175	      4.52511303	     47.37119055	     47.37119055	     10.30622697	    -18.41117081	     14.12674451	    -10.56171180	      6.57206024	      2.02063233	     29.71590194	    -15.66305078	     -8.86284857	     65.54625377	     45.18753177	      0.00000000	      0.00000000	      0.29843830	     -6.07691385	     -1.15538442	     23.52248545	     45.52375330	      0.00000000	      0.00000000
     16.18957143	     -5.22799326	     -5.99115321	      3.49380062	      0.77755448	      0.92997042	      0.48177256	      9.84035779	      3.89657492	    -15.58181967	     12.06649141	     12.06649141	      9.00893113	     -2.05037620	     -5.35776846	     35.15808349	     -8.32318132	      4.70609779	     43.40172064	     43.40172064	     10.59333437	    -17.86705668	     13.75968776	    -10.58686530	      6.43305495	      1.74844631	     30.97653619	    -15.52464021	     -9.04607893	     67.65427109	     45.13227649	      0.00000000	      0.00000000	     -0.56758757	     -5.90561659	     -0.91565182	     23.32218934	     45.46293760	      0.00000000	      0.00000000
     16.20200000	     -5.39575821	     -5.92888833	      3.77971646	      0.77707992	      0.92965193	      0.48059224	      9.50913992	      3.75979756	    -15.86213123	     11.90120424	     11.90120424	      9.32181157	     -1.82825174	     -5.38953496	     35.06111072	     -7.75030573	      4.85755393	     39.39663221	     39.39663221	     10.59369470	    -16.90955670	     12.59521953	    -10.59642350	      6.37268895	      1.68642332	     31.87719779	    -15.60335762	     -9.36517872	     70.64280078	     45.05586613	      0.00000000	      0.00000000	     -1.46093040	     -5.73083186	     -0.51488588	     23.57335162	     45.36729725	      0.00000000	      0.00000000
     16.21442857	     -5.63706682	     -5.92518715	      4.00839715	      0.77674665	      0.92909345	      0.47939566	      9.31769774	      3.69059051	    -15.97557979	     11.85267032	     11.85267032	      9.61555211	     -1.94465259	     -5.47671721	     35.01799269	     -7.28799553	      4.95254002	     35.63851535	     35.63851535	     11.03993249	    -15.48802053	     12.59596183	    -10.39946846	      6.31429583	      1.84098866	     32.98181565	    -15.87306604	     -9.54468402	     71.69201190	     45.03440291	      0.00000000	      0.00000000	     -2.10852751	     -5.52663266	     -0.40228661	     23.50555989	     45.33317865	      0.00000000	      0.00000000
     16.22685714	     -5.64809183	     -5.90534542	      4.21315052	      0.77686959	      0.92870422	      0.47814807	      8.85237356	      3.60045404	    -16.16269990	     11.84306597	     11.84306597	     10.12079686	     -1.69867034	     -5.28681919	     34.50721965	     -6.93014187	      4.83059437	     31.82285589	     31.82285589	     10.51974470	    -14.11971767	     10.10616627	    -10.56834094	      6.27196532	      2.29197853	     32.91105689	    -16.20102103	    -10.35771598	     75.99227716	     44.95549072	      0.00000000	      0.00000000	     -3.09886340	     -5.66698544	      1.08003032	     24.76060777	     45.04482389	      0.00000000	      0.00000000
     16.23928571	     -5.82133507	     -5.99698590	      4.43254849	      0.77694152	      0.92795951	      0.47671669	      8.60200448	      3.61983939	    -16.26400912	     11.86484851	     11.86484851	     10.43556051	     -1.83610590	     -5.40148141	     34.34501113	     -6.61711814	      4.85705139	     28.67822475	     28.67822475	     10.87622290	    -12.65794545	     10.38397167	    -10.35778295	      6.36611417	      2.30206814	     34.02891752	    -16.28748690	    -10.46367772	     76.80554707	     44.93964803	      0.00000000	      0.00000000	     -3.72830671	     -5.48640664	      1.20946960	     24.61501220	     45.01204030	      0.00000000	      0.00000000
     16.25171429	     -5.79287634	     -5.99012489	      4.57622514	      0.77750106	      0.92740771	      0.47535910	      8.08907374	      3.55447519	    -16.31951032	     11.89640349	     11.89640349	     10.98970586	     -1.70758062	     -5.25254004	     33.89012966	     -6.39668589	      4.40144353	     25.91373499	     25.91373499	     11.14789136	    -11.01296442	     10.32435308	    -10.45574351	      6.27806495	      2.27301411	     34.46738701	    -16.18196737	    -10.72051845	     79.42294081	     44.89995942	      0.00000000	      0.00000000	     -4.85915742	     -5.66968817	      2.33592215	     25.81231389	     44.81283058	      0.00000000	      0.00000000
